<?xml version="1.0" encoding="UTF-8" standalone="no"?>
<!DOCTYPE svg PUBLIC "-//W3C//DTD SVG 1.1//EN" "http://www.w3.org/Graphics/SVG/1.1/DTD/svg11.dtd">
<svg width="100%" height="100%" viewBox="0 0 3200 1274" version="1.1" xmlns="http://www.w3.org/2000/svg" xmlns:xlink="http://www.w3.org/1999/xlink" xml:space="preserve" xmlns:serif="http://www.serif.com/" style="fill-rule:evenodd;clip-rule:evenodd;stroke-linejoin:round;stroke-miterlimit:2;">
    <g transform="matrix(2.08333,0,0,2.08333,0,0)">
        <g transform="matrix(1,0,0,0.397933,0,0)">
            <rect id="Artboard1" x="0" y="0" width="1536" height="1536" style="fill:none;"/>
            <g id="Artboard11" serif:id="Artboard1">
                <g transform="matrix(1,0,0,2.51299,0,-788.46)">
                    <g transform="matrix(21.0926,0,0,21.0926,-4007.28,-7421.28)">
                        <g transform="matrix(24,0,0,24,192.496,386.977)">
                            <path d="M0.201,0.008C0.153,0.008 0.115,-0.005 0.087,-0.032C0.06,-0.058 0.046,-0.094 0.046,-0.139C0.046,-0.146 0.047,-0.155 0.048,-0.167L0.093,-0.533C0.1,-0.586 0.121,-0.628 0.157,-0.66C0.192,-0.692 0.236,-0.708 0.289,-0.708C0.336,-0.708 0.374,-0.695 0.403,-0.668C0.431,-0.641 0.445,-0.605 0.445,-0.559C0.445,-0.553 0.444,-0.544 0.443,-0.532L0.437,-0.49C0.437,-0.487 0.436,-0.485 0.434,-0.483C0.432,-0.481 0.43,-0.48 0.427,-0.48L0.353,-0.48C0.347,-0.48 0.344,-0.483 0.344,-0.49L0.35,-0.534C0.351,-0.537 0.351,-0.543 0.351,-0.55C0.351,-0.573 0.344,-0.591 0.332,-0.605C0.319,-0.618 0.301,-0.625 0.279,-0.625C0.254,-0.625 0.233,-0.617 0.216,-0.6C0.199,-0.583 0.188,-0.561 0.185,-0.534L0.14,-0.166C0.139,-0.162 0.139,-0.157 0.139,-0.15C0.139,-0.127 0.145,-0.108 0.158,-0.095C0.171,-0.082 0.188,-0.075 0.211,-0.075C0.236,-0.075 0.257,-0.083 0.274,-0.1C0.291,-0.117 0.302,-0.139 0.305,-0.166L0.318,-0.276C0.318,-0.279 0.317,-0.28 0.315,-0.28L0.241,-0.28C0.234,-0.28 0.232,-0.283 0.233,-0.29L0.24,-0.352C0.241,-0.359 0.245,-0.362 0.251,-0.362L0.412,-0.362C0.418,-0.362 0.421,-0.359 0.421,-0.352L0.398,-0.167C0.391,-0.114 0.37,-0.072 0.334,-0.04C0.298,-0.008 0.254,0.008 0.201,0.008Z" style="fill-rule:nonzero;"/>
                        </g>
                        <g transform="matrix(24,0,0,24,203.128,386.977)">
                            <path d="M0.203,0.008C0.155,0.008 0.117,-0.006 0.089,-0.033C0.061,-0.06 0.047,-0.098 0.047,-0.145C0.047,-0.152 0.048,-0.162 0.049,-0.175L0.091,-0.524C0.098,-0.579 0.119,-0.624 0.156,-0.658C0.193,-0.691 0.238,-0.708 0.291,-0.708C0.34,-0.708 0.378,-0.694 0.406,-0.666C0.435,-0.637 0.449,-0.599 0.449,-0.552C0.449,-0.547 0.448,-0.537 0.447,-0.524L0.404,-0.175C0.397,-0.12 0.376,-0.075 0.339,-0.042C0.302,-0.009 0.256,0.008 0.203,0.008ZM0.213,-0.075C0.238,-0.075 0.26,-0.084 0.278,-0.102C0.296,-0.119 0.307,-0.142 0.31,-0.171L0.354,-0.529C0.355,-0.533 0.355,-0.538 0.355,-0.545C0.355,-0.569 0.348,-0.588 0.335,-0.603C0.322,-0.618 0.303,-0.625 0.28,-0.625C0.255,-0.625 0.234,-0.616 0.217,-0.599C0.199,-0.581 0.188,-0.558 0.185,-0.529L0.141,-0.171C0.14,-0.167 0.14,-0.161 0.14,-0.154C0.14,-0.13 0.147,-0.111 0.16,-0.097C0.172,-0.082 0.19,-0.075 0.213,-0.075Z" style="fill-rule:nonzero;"/>
                        </g>
                        <g transform="matrix(24,0,0,24,213.88,386.977)">
                            <path d="M0.427,-0.693C0.43,-0.698 0.435,-0.7 0.44,-0.7L0.514,-0.7C0.521,-0.7 0.523,-0.697 0.522,-0.69L0.439,-0.01C0.438,-0.003 0.434,-0 0.428,-0L0.354,-0C0.347,-0 0.345,-0.003 0.346,-0.01L0.406,-0.506C0.407,-0.508 0.406,-0.509 0.406,-0.509C0.405,-0.509 0.403,-0.508 0.402,-0.507L0.287,-0.328C0.284,-0.323 0.281,-0.321 0.277,-0.321C0.274,-0.321 0.271,-0.323 0.269,-0.328L0.199,-0.506C0.198,-0.507 0.197,-0.508 0.196,-0.508C0.195,-0.508 0.194,-0.507 0.194,-0.505L0.133,-0.01C0.132,-0.003 0.128,-0 0.122,-0L0.048,-0C0.045,-0 0.043,-0.001 0.042,-0.003C0.04,-0.005 0.039,-0.007 0.04,-0.01L0.124,-0.69C0.124,-0.693 0.125,-0.695 0.127,-0.697C0.129,-0.699 0.131,-0.7 0.134,-0.7L0.208,-0.7C0.213,-0.7 0.217,-0.698 0.219,-0.693L0.298,-0.505C0.298,-0.504 0.299,-0.504 0.3,-0.504C0.301,-0.504 0.303,-0.504 0.304,-0.505L0.427,-0.693Z" style="fill-rule:nonzero;"/>
                        </g>
                        <g transform="matrix(24,0,0,24,226.24,386.977)">
                            <path d="M0.203,0.008C0.155,0.008 0.117,-0.006 0.089,-0.033C0.061,-0.06 0.047,-0.098 0.047,-0.145C0.047,-0.152 0.048,-0.162 0.049,-0.175L0.091,-0.524C0.098,-0.579 0.119,-0.624 0.156,-0.658C0.193,-0.691 0.238,-0.708 0.291,-0.708C0.34,-0.708 0.378,-0.694 0.406,-0.666C0.435,-0.637 0.449,-0.599 0.449,-0.552C0.449,-0.547 0.448,-0.537 0.447,-0.524L0.404,-0.175C0.397,-0.12 0.376,-0.075 0.339,-0.042C0.302,-0.009 0.256,0.008 0.203,0.008ZM0.213,-0.075C0.238,-0.075 0.26,-0.084 0.278,-0.102C0.296,-0.119 0.307,-0.142 0.31,-0.171L0.354,-0.529C0.355,-0.533 0.355,-0.538 0.355,-0.545C0.355,-0.569 0.348,-0.588 0.335,-0.603C0.322,-0.618 0.303,-0.625 0.28,-0.625C0.255,-0.625 0.234,-0.616 0.217,-0.599C0.199,-0.581 0.188,-0.558 0.185,-0.529L0.141,-0.171C0.14,-0.167 0.14,-0.161 0.14,-0.154C0.14,-0.13 0.147,-0.111 0.16,-0.097C0.172,-0.082 0.19,-0.075 0.213,-0.075Z" style="fill-rule:nonzero;"/>
                        </g>
                        <g transform="matrix(24,0,0,24,236.992,386.977)">
                            <path d="M0.05,-0C0.047,-0 0.045,-0.001 0.043,-0.003C0.042,-0.005 0.041,-0.007 0.042,-0.01L0.125,-0.69C0.126,-0.693 0.127,-0.695 0.129,-0.697C0.131,-0.699 0.133,-0.7 0.136,-0.7L0.21,-0.7C0.216,-0.7 0.219,-0.697 0.219,-0.69L0.182,-0.39C0.181,-0.388 0.182,-0.387 0.183,-0.387C0.184,-0.386 0.185,-0.387 0.186,-0.389L0.389,-0.693C0.392,-0.698 0.396,-0.7 0.401,-0.7L0.481,-0.7C0.484,-0.7 0.487,-0.699 0.488,-0.697C0.489,-0.694 0.489,-0.691 0.486,-0.688L0.303,-0.41C0.301,-0.408 0.301,-0.406 0.302,-0.404L0.416,-0.012L0.416,-0.009C0.416,-0.006 0.415,-0.004 0.413,-0.003C0.411,-0.001 0.409,-0 0.406,-0L0.326,-0C0.32,-0 0.317,-0.003 0.316,-0.008L0.228,-0.32C0.228,-0.321 0.228,-0.322 0.227,-0.322C0.226,-0.322 0.225,-0.322 0.224,-0.321L0.164,-0.24C0.163,-0.239 0.163,-0.238 0.163,-0.235L0.135,-0.01C0.134,-0.003 0.13,-0 0.124,-0L0.05,-0Z" style="fill-rule:nonzero;"/>
                        </g>
                        <g transform="matrix(24,0,0,24,247.84,386.977)">
                            <path d="M0.21,0.008C0.163,0.008 0.125,-0.007 0.098,-0.037C0.071,-0.067 0.057,-0.107 0.057,-0.157C0.057,-0.164 0.058,-0.175 0.059,-0.19L0.121,-0.69C0.121,-0.693 0.122,-0.695 0.124,-0.697C0.126,-0.699 0.129,-0.7 0.132,-0.7L0.205,-0.7C0.211,-0.7 0.214,-0.697 0.214,-0.69L0.151,-0.18C0.15,-0.175 0.15,-0.169 0.15,-0.16C0.15,-0.134 0.156,-0.113 0.169,-0.098C0.182,-0.083 0.199,-0.075 0.221,-0.075C0.246,-0.075 0.267,-0.085 0.284,-0.104C0.302,-0.123 0.313,-0.149 0.317,-0.18L0.38,-0.69C0.38,-0.693 0.381,-0.695 0.383,-0.697C0.385,-0.699 0.388,-0.7 0.391,-0.7L0.464,-0.7C0.47,-0.7 0.473,-0.697 0.473,-0.69L0.411,-0.19C0.404,-0.131 0.383,-0.083 0.345,-0.047C0.309,-0.01 0.263,0.008 0.21,0.008Z" style="fill-rule:nonzero;"/>
                        </g>
                    </g>
                    <g transform="matrix(43.3608,0,0,43.3608,-7820.65,-15936.7)">
                        <g transform="matrix(1.51712,0,0,1.51712,192.496,386.977)">
                            <path d="M0.256,-0.517C0.297,-0.517 0.332,-0.51 0.363,-0.496C0.393,-0.481 0.416,-0.461 0.433,-0.436C0.449,-0.41 0.457,-0.381 0.457,-0.348L0.457,-0.01C0.457,-0.003 0.454,-0 0.447,-0L0.371,-0C0.364,-0 0.361,-0.003 0.361,-0.01L0.361,-0.046C0.361,-0.049 0.359,-0.05 0.356,-0.048C0.339,-0.03 0.318,-0.016 0.293,-0.007C0.268,0.003 0.24,0.008 0.209,0.008C0.16,0.008 0.119,-0.005 0.086,-0.029C0.054,-0.055 0.038,-0.092 0.038,-0.143C0.038,-0.195 0.056,-0.236 0.093,-0.266C0.129,-0.295 0.18,-0.31 0.245,-0.31L0.357,-0.31C0.36,-0.31 0.361,-0.311 0.361,-0.314L0.361,-0.341C0.361,-0.37 0.353,-0.393 0.336,-0.409C0.319,-0.426 0.293,-0.434 0.258,-0.434C0.23,-0.434 0.207,-0.429 0.19,-0.418C0.172,-0.406 0.161,-0.392 0.157,-0.373C0.155,-0.366 0.151,-0.363 0.145,-0.364L0.064,-0.375C0.057,-0.376 0.054,-0.379 0.055,-0.383C0.06,-0.422 0.081,-0.455 0.118,-0.48C0.155,-0.504 0.201,-0.517 0.256,-0.517ZM0.23,-0.073C0.265,-0.073 0.296,-0.082 0.322,-0.101C0.348,-0.12 0.361,-0.143 0.361,-0.172L0.361,-0.231C0.361,-0.234 0.36,-0.235 0.357,-0.235L0.263,-0.235C0.224,-0.235 0.192,-0.227 0.169,-0.212C0.146,-0.197 0.134,-0.175 0.134,-0.148C0.134,-0.123 0.143,-0.105 0.161,-0.092C0.178,-0.079 0.201,-0.073 0.23,-0.073Z" style="fill-rule:nonzero;"/>
                        </g>
                        <g transform="matrix(1.51712,0,0,1.51712,193.763,386.977)">
                            <path d="M0.383,-0.499C0.383,-0.506 0.386,-0.509 0.393,-0.509L0.469,-0.509C0.476,-0.509 0.479,-0.506 0.479,-0.499L0.479,-0.026C0.479,0.055 0.456,0.112 0.41,0.147C0.365,0.182 0.304,0.199 0.227,0.199C0.216,0.199 0.2,0.198 0.177,0.197C0.17,0.196 0.167,0.193 0.167,0.186L0.17,0.117C0.17,0.114 0.171,0.112 0.173,0.11C0.175,0.108 0.178,0.107 0.181,0.108C0.19,0.109 0.204,0.109 0.222,0.109C0.279,0.109 0.32,0.098 0.345,0.077C0.37,0.056 0.383,0.021 0.383,-0.029L0.383,-0.047C0.383,-0.048 0.383,-0.049 0.382,-0.05C0.381,-0.051 0.379,-0.05 0.378,-0.049C0.35,-0.016 0.309,-0 0.255,-0C0.212,-0 0.172,-0.011 0.138,-0.034C0.102,-0.057 0.078,-0.09 0.065,-0.134C0.056,-0.163 0.052,-0.204 0.052,-0.256C0.052,-0.311 0.057,-0.354 0.067,-0.384C0.08,-0.424 0.102,-0.456 0.135,-0.481C0.167,-0.505 0.205,-0.517 0.249,-0.517C0.304,-0.517 0.347,-0.5 0.378,-0.467C0.379,-0.466 0.381,-0.465 0.382,-0.466C0.383,-0.466 0.383,-0.467 0.383,-0.468L0.383,-0.499ZM0.377,-0.163C0.379,-0.174 0.381,-0.185 0.382,-0.197C0.383,-0.209 0.383,-0.229 0.383,-0.257C0.383,-0.285 0.383,-0.305 0.382,-0.317C0.381,-0.328 0.379,-0.339 0.376,-0.35C0.371,-0.375 0.359,-0.395 0.34,-0.41C0.321,-0.426 0.298,-0.434 0.27,-0.434C0.242,-0.434 0.219,-0.426 0.2,-0.41C0.181,-0.395 0.168,-0.375 0.16,-0.35C0.153,-0.33 0.149,-0.299 0.149,-0.257C0.149,-0.211 0.152,-0.18 0.159,-0.163C0.166,-0.138 0.179,-0.118 0.199,-0.102C0.218,-0.087 0.242,-0.079 0.27,-0.079C0.299,-0.079 0.323,-0.087 0.342,-0.102C0.36,-0.118 0.372,-0.138 0.377,-0.163Z" style="fill-rule:nonzero;"/>
                        </g>
                        <g transform="matrix(1.51712,0,0,1.51712,194.676,386.977)">
                            <path d="M0.256,-0.517C0.297,-0.517 0.332,-0.51 0.363,-0.496C0.393,-0.481 0.416,-0.461 0.433,-0.436C0.449,-0.41 0.457,-0.381 0.457,-0.348L0.457,-0.01C0.457,-0.003 0.454,-0 0.447,-0L0.371,-0C0.364,-0 0.361,-0.003 0.361,-0.01L0.361,-0.046C0.361,-0.049 0.359,-0.05 0.356,-0.048C0.339,-0.03 0.318,-0.016 0.293,-0.007C0.268,0.003 0.24,0.008 0.209,0.008C0.16,0.008 0.119,-0.005 0.086,-0.029C0.054,-0.055 0.038,-0.092 0.038,-0.143C0.038,-0.195 0.056,-0.236 0.093,-0.266C0.129,-0.295 0.18,-0.31 0.245,-0.31L0.357,-0.31C0.36,-0.31 0.361,-0.311 0.361,-0.314L0.361,-0.341C0.361,-0.37 0.353,-0.393 0.336,-0.409C0.319,-0.426 0.293,-0.434 0.258,-0.434C0.23,-0.434 0.207,-0.429 0.19,-0.418C0.172,-0.406 0.161,-0.392 0.157,-0.373C0.155,-0.366 0.151,-0.363 0.145,-0.364L0.064,-0.375C0.057,-0.376 0.054,-0.379 0.055,-0.383C0.06,-0.422 0.081,-0.455 0.118,-0.48C0.155,-0.504 0.201,-0.517 0.256,-0.517ZM0.23,-0.073C0.265,-0.073 0.296,-0.082 0.322,-0.101C0.348,-0.12 0.361,-0.143 0.361,-0.172L0.361,-0.231C0.361,-0.234 0.36,-0.235 0.357,-0.235L0.263,-0.235C0.224,-0.235 0.192,-0.227 0.169,-0.212C0.146,-0.197 0.134,-0.175 0.134,-0.148C0.134,-0.123 0.143,-0.105 0.161,-0.092C0.178,-0.079 0.201,-0.073 0.23,-0.073Z" style="fill-rule:nonzero;"/>
                        </g>
                        <g transform="matrix(1.51712,0,0,1.51712,195.55,386.977)">
                            <path d="M0.599,-0.516C0.65,-0.516 0.69,-0.501 0.719,-0.47C0.748,-0.44 0.763,-0.398 0.763,-0.344L0.763,-0.01C0.763,-0.003 0.76,-0 0.753,-0L0.678,-0C0.671,-0 0.668,-0.003 0.668,-0.01L0.668,-0.324C0.668,-0.357 0.659,-0.384 0.641,-0.404C0.622,-0.423 0.598,-0.433 0.567,-0.433C0.536,-0.433 0.511,-0.423 0.492,-0.404C0.473,-0.385 0.463,-0.359 0.463,-0.326L0.463,-0.01C0.463,-0.003 0.46,-0 0.453,-0L0.378,-0C0.371,-0 0.368,-0.003 0.368,-0.01L0.368,-0.324C0.368,-0.357 0.359,-0.384 0.341,-0.404C0.322,-0.423 0.298,-0.433 0.267,-0.433C0.236,-0.433 0.212,-0.423 0.194,-0.404C0.175,-0.385 0.166,-0.359 0.166,-0.326L0.166,-0.01C0.166,-0.003 0.163,-0 0.156,-0L0.08,-0C0.073,-0 0.07,-0.003 0.07,-0.01L0.07,-0.499C0.07,-0.506 0.073,-0.509 0.08,-0.509L0.156,-0.509C0.163,-0.509 0.166,-0.506 0.166,-0.499L0.166,-0.465C0.166,-0.464 0.167,-0.463 0.168,-0.462C0.169,-0.461 0.17,-0.462 0.171,-0.463C0.2,-0.498 0.243,-0.516 0.299,-0.516C0.333,-0.516 0.362,-0.509 0.386,-0.497C0.41,-0.484 0.429,-0.464 0.442,-0.439C0.444,-0.436 0.446,-0.436 0.448,-0.439C0.464,-0.465 0.485,-0.484 0.511,-0.497C0.538,-0.51 0.567,-0.516 0.599,-0.516Z" style="fill-rule:nonzero;"/>
                        </g>
                        <g transform="matrix(1.51712,0,0,1.51712,196.884,386.977)">
                            <path d="M0.482,-0.318C0.485,-0.291 0.486,-0.26 0.485,-0.226C0.485,-0.219 0.482,-0.216 0.475,-0.216L0.156,-0.216C0.153,-0.216 0.152,-0.215 0.152,-0.212C0.152,-0.189 0.154,-0.172 0.158,-0.16C0.165,-0.133 0.18,-0.113 0.203,-0.098C0.225,-0.083 0.253,-0.075 0.287,-0.075C0.336,-0.075 0.374,-0.095 0.401,-0.136C0.404,-0.143 0.409,-0.144 0.414,-0.139L0.471,-0.101C0.476,-0.097 0.477,-0.093 0.474,-0.088C0.455,-0.058 0.429,-0.034 0.395,-0.017C0.36,0 0.321,0.009 0.278,0.009C0.229,0.009 0.188,-0.002 0.155,-0.023C0.122,-0.044 0.097,-0.075 0.08,-0.114C0.064,-0.153 0.056,-0.201 0.056,-0.257C0.056,-0.306 0.06,-0.343 0.067,-0.368C0.079,-0.414 0.103,-0.45 0.139,-0.477C0.175,-0.504 0.219,-0.517 0.27,-0.517C0.337,-0.517 0.388,-0.5 0.421,-0.467C0.454,-0.433 0.475,-0.383 0.482,-0.318ZM0.27,-0.434C0.241,-0.434 0.218,-0.427 0.199,-0.412C0.18,-0.398 0.168,-0.379 0.161,-0.355C0.156,-0.34 0.153,-0.322 0.152,-0.299C0.152,-0.296 0.153,-0.295 0.156,-0.295L0.385,-0.295C0.388,-0.295 0.389,-0.296 0.389,-0.299C0.388,-0.321 0.386,-0.337 0.383,-0.348C0.376,-0.374 0.363,-0.395 0.344,-0.41C0.324,-0.426 0.299,-0.434 0.27,-0.434Z" style="fill-rule:nonzero;"/>
                        </g>
                        <g transform="matrix(1.51712,0,0,1.51712,198.179,386.977)">
                            <path d="M0.278,0.008C0.229,0.008 0.186,-0.005 0.149,-0.029C0.112,-0.055 0.087,-0.089 0.072,-0.134C0.06,-0.17 0.054,-0.211 0.054,-0.256C0.054,-0.303 0.06,-0.343 0.071,-0.376C0.086,-0.42 0.111,-0.455 0.148,-0.48C0.185,-0.504 0.228,-0.517 0.279,-0.517C0.327,-0.517 0.369,-0.504 0.405,-0.48C0.44,-0.455 0.466,-0.42 0.481,-0.377C0.493,-0.343 0.499,-0.303 0.499,-0.257C0.499,-0.21 0.493,-0.169 0.481,-0.134C0.466,-0.089 0.441,-0.055 0.405,-0.029C0.369,-0.005 0.327,0.008 0.278,0.008ZM0.278,-0.075C0.305,-0.075 0.328,-0.083 0.348,-0.098C0.368,-0.113 0.382,-0.134 0.391,-0.161C0.398,-0.186 0.402,-0.218 0.402,-0.255C0.402,-0.292 0.399,-0.323 0.392,-0.348C0.383,-0.375 0.369,-0.397 0.349,-0.411C0.329,-0.427 0.305,-0.434 0.276,-0.434C0.249,-0.434 0.225,-0.427 0.205,-0.411C0.185,-0.397 0.171,-0.375 0.162,-0.348C0.155,-0.325 0.151,-0.294 0.151,-0.255C0.151,-0.216 0.155,-0.185 0.162,-0.161C0.17,-0.134 0.184,-0.113 0.204,-0.098C0.225,-0.083 0.249,-0.075 0.278,-0.075Z" style="fill-rule:nonzero;"/>
                        </g>
                        <g transform="matrix(1.51712,0,0,1.51712,199.097,386.977)">
                            <path d="M0.294,-0.616C0.261,-0.616 0.238,-0.61 0.226,-0.597C0.214,-0.584 0.208,-0.56 0.208,-0.525L0.208,-0.513C0.208,-0.51 0.209,-0.509 0.212,-0.509L0.317,-0.509C0.324,-0.509 0.327,-0.506 0.327,-0.499L0.327,-0.431C0.327,-0.424 0.324,-0.421 0.317,-0.421L0.212,-0.421C0.209,-0.421 0.208,-0.42 0.208,-0.417L0.208,-0.01C0.208,-0.003 0.205,-0 0.198,-0L0.122,-0C0.115,-0 0.112,-0.003 0.112,-0.01L0.112,-0.417C0.112,-0.42 0.111,-0.421 0.108,-0.421L0.041,-0.421C0.034,-0.421 0.031,-0.424 0.031,-0.431L0.031,-0.499C0.031,-0.506 0.034,-0.509 0.041,-0.509L0.108,-0.509C0.111,-0.509 0.112,-0.51 0.112,-0.513L0.112,-0.531C0.112,-0.575 0.117,-0.609 0.128,-0.633C0.138,-0.657 0.155,-0.674 0.18,-0.685C0.205,-0.695 0.239,-0.7 0.284,-0.7L0.318,-0.7C0.325,-0.7 0.328,-0.697 0.328,-0.69L0.328,-0.626C0.328,-0.619 0.325,-0.616 0.318,-0.616L0.294,-0.616Z" style="fill-rule:nonzero;"/>
                        </g>
                        <g transform="matrix(1.51712,0,0,1.51712,200.136,386.977)">
                            <path d="M0.468,-0.31C0.475,-0.281 0.479,-0.25 0.479,-0.219C0.479,-0.188 0.475,-0.159 0.467,-0.132C0.454,-0.089 0.43,-0.056 0.395,-0.031C0.359,-0.006 0.316,0.007 0.267,0.007C0.218,0.007 0.177,-0.005 0.142,-0.029C0.107,-0.053 0.083,-0.086 0.069,-0.127C0.062,-0.146 0.059,-0.162 0.058,-0.176L0.058,-0.178C0.058,-0.183 0.061,-0.186 0.067,-0.186L0.146,-0.186C0.152,-0.186 0.155,-0.183 0.156,-0.177C0.157,-0.172 0.158,-0.165 0.161,-0.156C0.168,-0.131 0.181,-0.112 0.2,-0.098C0.218,-0.083 0.24,-0.076 0.266,-0.076C0.293,-0.076 0.317,-0.084 0.336,-0.099C0.355,-0.114 0.367,-0.134 0.374,-0.161C0.379,-0.175 0.381,-0.194 0.381,-0.219C0.381,-0.241 0.379,-0.261 0.375,-0.28C0.37,-0.305 0.359,-0.325 0.34,-0.339C0.321,-0.352 0.297,-0.359 0.269,-0.359C0.243,-0.359 0.22,-0.353 0.199,-0.342C0.178,-0.33 0.165,-0.314 0.159,-0.295C0.157,-0.289 0.153,-0.286 0.148,-0.286L0.068,-0.286C0.061,-0.286 0.058,-0.289 0.058,-0.296L0.058,-0.69C0.058,-0.697 0.061,-0.7 0.068,-0.7L0.442,-0.7C0.449,-0.7 0.452,-0.697 0.452,-0.69L0.452,-0.627C0.452,-0.62 0.449,-0.617 0.442,-0.617L0.158,-0.617C0.155,-0.617 0.154,-0.616 0.154,-0.613L0.153,-0.404C0.153,-0.4 0.155,-0.399 0.158,-0.401C0.174,-0.415 0.193,-0.426 0.214,-0.433C0.234,-0.44 0.257,-0.443 0.28,-0.443C0.327,-0.443 0.367,-0.431 0.401,-0.408C0.434,-0.385 0.457,-0.352 0.468,-0.31Z" style="fill-rule:nonzero;"/>
                        </g>
                        <g transform="matrix(1.51712,0,0,1.51712,201.412,386.977)">
                            <path d="M0.135,-0C0.116,-0 0.101,-0.006 0.089,-0.018C0.077,-0.03 0.071,-0.045 0.071,-0.064C0.071,-0.083 0.077,-0.098 0.089,-0.11C0.101,-0.122 0.116,-0.128 0.135,-0.128C0.154,-0.128 0.169,-0.122 0.181,-0.11C0.193,-0.098 0.199,-0.083 0.199,-0.064C0.199,-0.045 0.193,-0.03 0.181,-0.018C0.169,-0.006 0.154,-0 0.135,-0Z" style="fill-rule:nonzero;"/>
                        </g>
                        <g transform="matrix(1.51712,0,0,1.51712,201.919,386.977)">
                            <path d="M0.135,-0C0.116,-0 0.101,-0.006 0.089,-0.018C0.077,-0.03 0.071,-0.045 0.071,-0.064C0.071,-0.083 0.077,-0.098 0.089,-0.11C0.101,-0.122 0.116,-0.128 0.135,-0.128C0.154,-0.128 0.169,-0.122 0.181,-0.11C0.193,-0.098 0.199,-0.083 0.199,-0.064C0.199,-0.045 0.193,-0.03 0.181,-0.018C0.169,-0.006 0.154,-0 0.135,-0Z" style="fill-rule:nonzero;"/>
                        </g>
                        <g transform="matrix(1.51712,0,0,1.51712,202.426,386.977)">
                            <path d="M0.135,-0C0.116,-0 0.101,-0.006 0.089,-0.018C0.077,-0.03 0.071,-0.045 0.071,-0.064C0.071,-0.083 0.077,-0.098 0.089,-0.11C0.101,-0.122 0.116,-0.128 0.135,-0.128C0.154,-0.128 0.169,-0.122 0.181,-0.11C0.193,-0.098 0.199,-0.083 0.199,-0.064C0.199,-0.045 0.193,-0.03 0.181,-0.018C0.169,-0.006 0.154,-0 0.135,-0Z" style="fill-rule:nonzero;"/>
                        </g>
                        <g transform="matrix(1.51712,0,0,1.51712,203.325,386.977)">
                            <path d="M0.278,0.008C0.229,0.008 0.186,-0.005 0.149,-0.029C0.112,-0.055 0.087,-0.089 0.072,-0.134C0.06,-0.17 0.054,-0.211 0.054,-0.256C0.054,-0.303 0.06,-0.343 0.071,-0.376C0.086,-0.42 0.111,-0.455 0.148,-0.48C0.185,-0.504 0.228,-0.517 0.279,-0.517C0.327,-0.517 0.369,-0.504 0.405,-0.48C0.44,-0.455 0.466,-0.42 0.481,-0.377C0.493,-0.343 0.499,-0.303 0.499,-0.257C0.499,-0.21 0.493,-0.169 0.481,-0.134C0.466,-0.089 0.441,-0.055 0.405,-0.029C0.369,-0.005 0.327,0.008 0.278,0.008ZM0.278,-0.075C0.305,-0.075 0.328,-0.083 0.348,-0.098C0.368,-0.113 0.382,-0.134 0.391,-0.161C0.398,-0.186 0.402,-0.218 0.402,-0.255C0.402,-0.292 0.399,-0.323 0.392,-0.348C0.383,-0.375 0.369,-0.397 0.349,-0.411C0.329,-0.427 0.305,-0.434 0.276,-0.434C0.249,-0.434 0.225,-0.427 0.205,-0.411C0.185,-0.397 0.171,-0.375 0.162,-0.348C0.155,-0.325 0.151,-0.294 0.151,-0.255C0.151,-0.216 0.155,-0.185 0.162,-0.161C0.17,-0.134 0.184,-0.113 0.204,-0.098C0.225,-0.083 0.249,-0.075 0.278,-0.075Z" style="fill-rule:nonzero;"/>
                        </g>
                        <g transform="matrix(1.51712,0,0,1.51712,204.257,386.977)">
                            <path d="M0.293,-0.514C0.314,-0.514 0.334,-0.51 0.351,-0.501C0.356,-0.499 0.357,-0.495 0.356,-0.489L0.34,-0.414C0.339,-0.408 0.335,-0.406 0.328,-0.408C0.317,-0.413 0.303,-0.415 0.288,-0.415L0.274,-0.414C0.243,-0.413 0.217,-0.402 0.197,-0.382C0.176,-0.361 0.166,-0.335 0.166,-0.302L0.166,-0.01C0.166,-0.003 0.163,-0 0.156,-0L0.08,-0C0.073,-0 0.07,-0.003 0.07,-0.01L0.07,-0.499C0.07,-0.506 0.073,-0.509 0.08,-0.509L0.156,-0.509C0.163,-0.509 0.166,-0.506 0.166,-0.499L0.166,-0.446C0.166,-0.444 0.167,-0.443 0.168,-0.443C0.169,-0.442 0.169,-0.443 0.17,-0.444C0.2,-0.491 0.241,-0.514 0.293,-0.514Z" style="fill-rule:nonzero;"/>
                        </g>
                        <g transform="matrix(1.51712,0,0,1.51712,205.302,386.977)">
                            <path d="M0.535,-0.694C0.538,-0.698 0.542,-0.7 0.547,-0.7L0.623,-0.7C0.63,-0.7 0.633,-0.697 0.633,-0.69L0.633,-0.01C0.633,-0.003 0.63,-0 0.623,-0L0.547,-0C0.54,-0 0.537,-0.003 0.537,-0.01L0.537,-0.522C0.537,-0.524 0.536,-0.525 0.535,-0.526C0.534,-0.527 0.533,-0.526 0.532,-0.524L0.389,-0.306C0.386,-0.302 0.382,-0.3 0.377,-0.3L0.339,-0.3C0.334,-0.3 0.33,-0.302 0.327,-0.306L0.183,-0.522C0.182,-0.524 0.181,-0.525 0.18,-0.524C0.179,-0.523 0.178,-0.522 0.178,-0.52L0.178,-0.01C0.178,-0.003 0.175,-0 0.168,-0L0.092,-0C0.085,-0 0.082,-0.003 0.082,-0.01L0.082,-0.69C0.082,-0.697 0.085,-0.7 0.092,-0.7L0.168,-0.7C0.173,-0.7 0.177,-0.698 0.18,-0.694L0.355,-0.432C0.356,-0.431 0.357,-0.431 0.358,-0.431C0.359,-0.431 0.36,-0.431 0.361,-0.432L0.535,-0.694Z" style="fill-rule:nonzero;"/>
                        </g>
                        <g transform="matrix(1.51712,0,0,1.51712,206.476,386.977)">
                            <path d="M0.128,-0.589C0.109,-0.589 0.094,-0.595 0.082,-0.607C0.07,-0.619 0.064,-0.634 0.064,-0.653C0.064,-0.672 0.07,-0.687 0.082,-0.699C0.094,-0.711 0.109,-0.717 0.128,-0.717C0.147,-0.717 0.162,-0.711 0.174,-0.699C0.186,-0.687 0.192,-0.672 0.192,-0.653C0.192,-0.634 0.186,-0.619 0.174,-0.607C0.162,-0.595 0.147,-0.589 0.128,-0.589ZM0.088,-0.001C0.081,-0.001 0.078,-0.004 0.078,-0.011L0.078,-0.499C0.078,-0.506 0.081,-0.509 0.088,-0.509L0.164,-0.509C0.171,-0.509 0.174,-0.506 0.174,-0.499L0.174,-0.011C0.174,-0.004 0.171,-0.001 0.164,-0.001L0.088,-0.001Z" style="fill-rule:nonzero;"/>
                        </g>
                        <g transform="matrix(1.51712,0,0,1.51712,206.953,386.977)">
                            <path d="M0.08,-0C0.073,-0 0.07,-0.003 0.07,-0.01L0.07,-0.69C0.07,-0.697 0.073,-0.7 0.08,-0.7L0.156,-0.7C0.163,-0.7 0.166,-0.697 0.166,-0.69L0.166,-0.305C0.166,-0.304 0.167,-0.303 0.168,-0.302C0.169,-0.301 0.17,-0.302 0.171,-0.303L0.356,-0.504C0.359,-0.507 0.363,-0.509 0.368,-0.509L0.457,-0.509C0.461,-0.509 0.464,-0.508 0.465,-0.505C0.466,-0.503 0.465,-0.5 0.462,-0.497L0.333,-0.348C0.332,-0.345 0.331,-0.343 0.332,-0.342L0.485,-0.012L0.486,-0.008C0.486,-0.003 0.483,-0 0.477,-0L0.397,-0C0.392,-0 0.388,-0.003 0.386,-0.008L0.267,-0.28C0.266,-0.283 0.264,-0.284 0.262,-0.281L0.168,-0.177C0.167,-0.174 0.166,-0.173 0.166,-0.172L0.166,-0.01C0.166,-0.003 0.163,-0 0.156,-0L0.08,-0Z" style="fill-rule:nonzero;"/>
                        </g>
                        <g transform="matrix(1.51712,0,0,1.51712,207.775,386.977)">
                            <path d="M0.278,0.008C0.229,0.008 0.186,-0.005 0.149,-0.029C0.112,-0.055 0.087,-0.089 0.072,-0.134C0.06,-0.17 0.054,-0.211 0.054,-0.256C0.054,-0.303 0.06,-0.343 0.071,-0.376C0.086,-0.42 0.111,-0.455 0.148,-0.48C0.185,-0.504 0.228,-0.517 0.279,-0.517C0.327,-0.517 0.369,-0.504 0.405,-0.48C0.44,-0.455 0.466,-0.42 0.481,-0.377C0.493,-0.343 0.499,-0.303 0.499,-0.257C0.499,-0.21 0.493,-0.169 0.481,-0.134C0.466,-0.089 0.441,-0.055 0.405,-0.029C0.369,-0.005 0.327,0.008 0.278,0.008ZM0.278,-0.075C0.305,-0.075 0.328,-0.083 0.348,-0.098C0.368,-0.113 0.382,-0.134 0.391,-0.161C0.398,-0.186 0.402,-0.218 0.402,-0.255C0.402,-0.292 0.399,-0.323 0.392,-0.348C0.383,-0.375 0.369,-0.397 0.349,-0.411C0.329,-0.427 0.305,-0.434 0.276,-0.434C0.249,-0.434 0.225,-0.427 0.205,-0.411C0.185,-0.397 0.171,-0.375 0.162,-0.348C0.155,-0.325 0.151,-0.294 0.151,-0.255C0.151,-0.216 0.155,-0.185 0.162,-0.161C0.17,-0.134 0.184,-0.113 0.204,-0.098C0.225,-0.083 0.249,-0.075 0.278,-0.075Z" style="fill-rule:nonzero;"/>
                        </g>
                        <g transform="matrix(1.51712,0,0,1.51712,208.679,386.977)">
                            <path d="M0.045,-0.486C0.038,-0.486 0.034,-0.489 0.034,-0.496L0.025,-0.688C0.025,-0.695 0.028,-0.698 0.034,-0.698L0.113,-0.698C0.119,-0.698 0.122,-0.695 0.122,-0.688L0.112,-0.496C0.112,-0.489 0.109,-0.486 0.102,-0.486L0.045,-0.486Z" style="fill-rule:nonzero;"/>
                        </g>
                        <g transform="matrix(1.51712,0,0,1.51712,208.949,386.977)">
                            <path d="M0.249,0.006C0.209,0.006 0.174,-0 0.143,-0.012C0.113,-0.024 0.09,-0.041 0.073,-0.062C0.056,-0.083 0.048,-0.106 0.048,-0.131L0.048,-0.142C0.048,-0.149 0.051,-0.152 0.058,-0.152L0.13,-0.152C0.137,-0.152 0.14,-0.149 0.14,-0.142L0.14,-0.137C0.14,-0.118 0.15,-0.102 0.171,-0.088C0.191,-0.074 0.217,-0.067 0.248,-0.067C0.278,-0.067 0.302,-0.074 0.321,-0.086C0.34,-0.1 0.349,-0.116 0.349,-0.136C0.349,-0.155 0.34,-0.17 0.323,-0.18C0.306,-0.189 0.278,-0.199 0.239,-0.21C0.201,-0.221 0.169,-0.232 0.143,-0.243C0.118,-0.254 0.096,-0.269 0.079,-0.29C0.061,-0.31 0.052,-0.336 0.052,-0.368C0.052,-0.413 0.07,-0.448 0.105,-0.474C0.14,-0.501 0.186,-0.514 0.244,-0.514C0.283,-0.514 0.317,-0.508 0.346,-0.496C0.376,-0.483 0.399,-0.466 0.415,-0.444C0.431,-0.422 0.439,-0.397 0.439,-0.37L0.439,-0.367C0.439,-0.36 0.436,-0.357 0.429,-0.357L0.359,-0.357C0.352,-0.357 0.349,-0.36 0.349,-0.367L0.349,-0.37C0.349,-0.389 0.34,-0.406 0.321,-0.419C0.302,-0.432 0.276,-0.438 0.243,-0.438C0.214,-0.438 0.19,-0.432 0.172,-0.421C0.153,-0.41 0.144,-0.394 0.144,-0.375C0.144,-0.356 0.153,-0.341 0.171,-0.331C0.188,-0.321 0.217,-0.31 0.256,-0.299C0.295,-0.288 0.327,-0.278 0.353,-0.268C0.378,-0.257 0.4,-0.242 0.418,-0.222C0.436,-0.201 0.445,-0.175 0.445,-0.142C0.445,-0.097 0.427,-0.061 0.392,-0.034C0.356,-0.007 0.308,0.006 0.249,0.006Z" style="fill-rule:nonzero;"/>
                        </g>
                        <g transform="matrix(1.51712,0,0,1.51712,210.171,386.977)">
                            <path d="M0.383,-0.499C0.383,-0.506 0.386,-0.509 0.393,-0.509L0.469,-0.509C0.476,-0.509 0.479,-0.506 0.479,-0.499L0.479,-0.026C0.479,0.055 0.456,0.112 0.41,0.147C0.365,0.182 0.304,0.199 0.227,0.199C0.216,0.199 0.2,0.198 0.177,0.197C0.17,0.196 0.167,0.193 0.167,0.186L0.17,0.117C0.17,0.114 0.171,0.112 0.173,0.11C0.175,0.108 0.178,0.107 0.181,0.108C0.19,0.109 0.204,0.109 0.222,0.109C0.279,0.109 0.32,0.098 0.345,0.077C0.37,0.056 0.383,0.021 0.383,-0.029L0.383,-0.047C0.383,-0.048 0.383,-0.049 0.382,-0.05C0.381,-0.051 0.379,-0.05 0.378,-0.049C0.35,-0.016 0.309,-0 0.255,-0C0.212,-0 0.172,-0.011 0.138,-0.034C0.102,-0.057 0.078,-0.09 0.065,-0.134C0.056,-0.163 0.052,-0.204 0.052,-0.256C0.052,-0.311 0.057,-0.354 0.067,-0.384C0.08,-0.424 0.102,-0.456 0.135,-0.481C0.167,-0.505 0.205,-0.517 0.249,-0.517C0.304,-0.517 0.347,-0.5 0.378,-0.467C0.379,-0.466 0.381,-0.465 0.382,-0.466C0.383,-0.466 0.383,-0.467 0.383,-0.468L0.383,-0.499ZM0.377,-0.163C0.379,-0.174 0.381,-0.185 0.382,-0.197C0.383,-0.209 0.383,-0.229 0.383,-0.257C0.383,-0.285 0.383,-0.305 0.382,-0.317C0.381,-0.328 0.379,-0.339 0.376,-0.35C0.371,-0.375 0.359,-0.395 0.34,-0.41C0.321,-0.426 0.298,-0.434 0.27,-0.434C0.242,-0.434 0.219,-0.426 0.2,-0.41C0.181,-0.395 0.168,-0.375 0.16,-0.35C0.153,-0.33 0.149,-0.299 0.149,-0.257C0.149,-0.211 0.152,-0.18 0.159,-0.163C0.166,-0.138 0.179,-0.118 0.199,-0.102C0.218,-0.087 0.242,-0.079 0.27,-0.079C0.299,-0.079 0.323,-0.087 0.342,-0.102C0.36,-0.118 0.372,-0.138 0.377,-0.163Z" style="fill-rule:nonzero;"/>
                        </g>
                        <g transform="matrix(1.51712,0,0,1.51712,211.084,386.977)">
                            <path d="M0.256,-0.517C0.297,-0.517 0.332,-0.51 0.363,-0.496C0.393,-0.481 0.416,-0.461 0.433,-0.436C0.449,-0.41 0.457,-0.381 0.457,-0.348L0.457,-0.01C0.457,-0.003 0.454,-0 0.447,-0L0.371,-0C0.364,-0 0.361,-0.003 0.361,-0.01L0.361,-0.046C0.361,-0.049 0.359,-0.05 0.356,-0.048C0.339,-0.03 0.318,-0.016 0.293,-0.007C0.268,0.003 0.24,0.008 0.209,0.008C0.16,0.008 0.119,-0.005 0.086,-0.029C0.054,-0.055 0.038,-0.092 0.038,-0.143C0.038,-0.195 0.056,-0.236 0.093,-0.266C0.129,-0.295 0.18,-0.31 0.245,-0.31L0.357,-0.31C0.36,-0.31 0.361,-0.311 0.361,-0.314L0.361,-0.341C0.361,-0.37 0.353,-0.393 0.336,-0.409C0.319,-0.426 0.293,-0.434 0.258,-0.434C0.23,-0.434 0.207,-0.429 0.19,-0.418C0.172,-0.406 0.161,-0.392 0.157,-0.373C0.155,-0.366 0.151,-0.363 0.145,-0.364L0.064,-0.375C0.057,-0.376 0.054,-0.379 0.055,-0.383C0.06,-0.422 0.081,-0.455 0.118,-0.48C0.155,-0.504 0.201,-0.517 0.256,-0.517ZM0.23,-0.073C0.265,-0.073 0.296,-0.082 0.322,-0.101C0.348,-0.12 0.361,-0.143 0.361,-0.172L0.361,-0.231C0.361,-0.234 0.36,-0.235 0.357,-0.235L0.263,-0.235C0.224,-0.235 0.192,-0.227 0.169,-0.212C0.146,-0.197 0.134,-0.175 0.134,-0.148C0.134,-0.123 0.143,-0.105 0.161,-0.092C0.178,-0.079 0.201,-0.073 0.23,-0.073Z" style="fill-rule:nonzero;"/>
                        </g>
                        <g transform="matrix(1.51712,0,0,1.51712,211.958,386.977)">
                            <path d="M0.599,-0.516C0.65,-0.516 0.69,-0.501 0.719,-0.47C0.748,-0.44 0.763,-0.398 0.763,-0.344L0.763,-0.01C0.763,-0.003 0.76,-0 0.753,-0L0.678,-0C0.671,-0 0.668,-0.003 0.668,-0.01L0.668,-0.324C0.668,-0.357 0.659,-0.384 0.641,-0.404C0.622,-0.423 0.598,-0.433 0.567,-0.433C0.536,-0.433 0.511,-0.423 0.492,-0.404C0.473,-0.385 0.463,-0.359 0.463,-0.326L0.463,-0.01C0.463,-0.003 0.46,-0 0.453,-0L0.378,-0C0.371,-0 0.368,-0.003 0.368,-0.01L0.368,-0.324C0.368,-0.357 0.359,-0.384 0.341,-0.404C0.322,-0.423 0.298,-0.433 0.267,-0.433C0.236,-0.433 0.212,-0.423 0.194,-0.404C0.175,-0.385 0.166,-0.359 0.166,-0.326L0.166,-0.01C0.166,-0.003 0.163,-0 0.156,-0L0.08,-0C0.073,-0 0.07,-0.003 0.07,-0.01L0.07,-0.499C0.07,-0.506 0.073,-0.509 0.08,-0.509L0.156,-0.509C0.163,-0.509 0.166,-0.506 0.166,-0.499L0.166,-0.465C0.166,-0.464 0.167,-0.463 0.168,-0.462C0.169,-0.461 0.17,-0.462 0.171,-0.463C0.2,-0.498 0.243,-0.516 0.299,-0.516C0.333,-0.516 0.362,-0.509 0.386,-0.497C0.41,-0.484 0.429,-0.464 0.442,-0.439C0.444,-0.436 0.446,-0.436 0.448,-0.439C0.464,-0.465 0.485,-0.484 0.511,-0.497C0.538,-0.51 0.567,-0.516 0.599,-0.516Z" style="fill-rule:nonzero;"/>
                        </g>
                        <g transform="matrix(1.51712,0,0,1.51712,213.291,386.977)">
                            <path d="M0.482,-0.318C0.485,-0.291 0.486,-0.26 0.485,-0.226C0.485,-0.219 0.482,-0.216 0.475,-0.216L0.156,-0.216C0.153,-0.216 0.152,-0.215 0.152,-0.212C0.152,-0.189 0.154,-0.172 0.158,-0.16C0.165,-0.133 0.18,-0.113 0.203,-0.098C0.225,-0.083 0.253,-0.075 0.287,-0.075C0.336,-0.075 0.374,-0.095 0.401,-0.136C0.404,-0.143 0.409,-0.144 0.414,-0.139L0.471,-0.101C0.476,-0.097 0.477,-0.093 0.474,-0.088C0.455,-0.058 0.429,-0.034 0.395,-0.017C0.36,0 0.321,0.009 0.278,0.009C0.229,0.009 0.188,-0.002 0.155,-0.023C0.122,-0.044 0.097,-0.075 0.08,-0.114C0.064,-0.153 0.056,-0.201 0.056,-0.257C0.056,-0.306 0.06,-0.343 0.067,-0.368C0.079,-0.414 0.103,-0.45 0.139,-0.477C0.175,-0.504 0.219,-0.517 0.27,-0.517C0.337,-0.517 0.388,-0.5 0.421,-0.467C0.454,-0.433 0.475,-0.383 0.482,-0.318ZM0.27,-0.434C0.241,-0.434 0.218,-0.427 0.199,-0.412C0.18,-0.398 0.168,-0.379 0.161,-0.355C0.156,-0.34 0.153,-0.322 0.152,-0.299C0.152,-0.296 0.153,-0.295 0.156,-0.295L0.385,-0.295C0.388,-0.295 0.389,-0.296 0.389,-0.299C0.388,-0.321 0.386,-0.337 0.383,-0.348C0.376,-0.374 0.363,-0.395 0.344,-0.41C0.324,-0.426 0.299,-0.434 0.27,-0.434Z" style="fill-rule:nonzero;"/>
                        </g>
                    </g>
                </g>
            </g>
        </g>
    </g>
</svg>
